HIERARCHY
ROOT Hips
{
	OFFSET -0.001795 -0.223333 0.028219
	CHANNELS 6 Xposition Yposition Zposition Zrotation Yrotation Xrotation 
	JOINT LeftUpLeg
	{
		OFFSET 0.069520 -0.091406 -0.006815
		CHANNELS 3 Zrotation Yrotation Xrotation
		JOINT LeftLeg
		{
			OFFSET 0.034277 -0.375199 -0.004496
			CHANNELS 3 Zrotation Yrotation Xrotation
			JOINT LeftFoot
			{
				OFFSET -0.013596 -0.397961 -0.043693
				CHANNELS 3 Zrotation Yrotation Xrotation
				JOINT LeftToe
				{
					OFFSET 0.026358 -0.055791 0.119288
					CHANNELS 3 Zrotation Yrotation Xrotation
					End Site
					{
						OFFSET 0.000000 0.000000 0.000000
					}
				}
			}
		}
	}
	JOINT RightUpLeg
	{
		OFFSET -0.067670 -0.090522 -0.004320
		CHANNELS 3 Zrotation Yrotation Xrotation
		JOINT RightLeg
		{
			OFFSET -0.038290 -0.382569 -0.008850
			CHANNELS 3 Zrotation Yrotation Xrotation
			JOINT RightFoot
			{
				OFFSET 0.015774 -0.398415 -0.042312
				CHANNELS 3 Zrotation Yrotation Xrotation
				JOINT RightToe
				{
					OFFSET -0.025372 -0.048144 0.123348
					CHANNELS 3 Zrotation Yrotation Xrotation
					End Site
					{
						OFFSET 0.000000 0.000000 0.000000
					}
				}
			}
		}
	}
	JOINT Spine
	{
		OFFSET -0.002533 0.108963 -0.026696
		CHANNELS 3 Zrotation Yrotation Xrotation
		JOINT Spine1
		{
			OFFSET 0.005487 0.135180 0.001092
			CHANNELS 3 Zrotation Yrotation Xrotation
			JOINT Spine2
			{
				OFFSET 0.001457 0.052922 0.025425
				CHANNELS 3 Zrotation Yrotation Xrotation
				JOINT Neck
				{
					OFFSET -0.002778 0.213870 -0.042857
					CHANNELS 3 Zrotation Yrotation Xrotation
					JOINT Head
					{
						OFFSET 0.005152 0.064970 0.051349
						CHANNELS 3 Zrotation Yrotation Xrotation
						End Site
						{
							OFFSET 0.000000 0.000000 0.000000
						}
					}
				}
				JOINT LeftShoulder
				{
					OFFSET 0.078845 0.121749 -0.034090
					CHANNELS 3 Zrotation Yrotation Xrotation
					JOINT LeftArm
					{
						OFFSET 0.090977 0.030469 -0.008868
						CHANNELS 3 Zrotation Yrotation Xrotation
						JOINT LeftForeArm
						{
							OFFSET 0.259612 -0.012772 -0.027456
							CHANNELS 3 Zrotation Yrotation Xrotation
							JOINT LeftHand
							{
								OFFSET 0.249234 0.008986 -0.001171
								CHANNELS 3 Zrotation Yrotation Xrotation
								End Site
								{
									OFFSET 0.000000 0.000000 0.000000
								}
							}
						}
					}
				}
				JOINT RightShoulder
				{
					OFFSET -0.081759 0.118833 -0.038615
					CHANNELS 3 Zrotation Yrotation Xrotation
					JOINT RightArm
					{
						OFFSET -0.096012 0.032551 -0.009143
						CHANNELS 3 Zrotation Yrotation Xrotation
						JOINT RightForeArm
						{
							OFFSET -0.253742 -0.013329 -0.021401
							CHANNELS 3 Zrotation Yrotation Xrotation
							JOINT RightHand
							{
								OFFSET -0.255298 0.007772 -0.005559
								CHANNELS 3 Zrotation Yrotation Xrotation
								End Site
								{
									OFFSET 0.000000 0.000000 0.000000
								}
							}
						}
					}
				}
			}
		}
	}
}
MOTION
Frames: 16
Frame Time: 0.050000
-0.630376 0.985688 -0.237737 178.282981 37.305446 173.766156 -4.827479 -2.580084 5.824062 0.332908 -2.599464 0.732841 8.977516 -2.827654 24.301888 0.000000 0.000000 0.000000 -7.080113 -10.164440 -3.271834 -27.228135 -22.313176 40.087508 21.767156 6.469484 36.004227 0.000000 0.000000 0.000000 -0.724924 -3.836033 18.597130 -9.896675 -4.043481 -31.165254 6.962752 19.429314 38.762481 11.669475 2.962525 -34.873128 0.000000 0.000000 0.000000 4.486188 -12.945671 -63.920093 -34.832359 48.007092 -20.978336 -38.938442 -9.862037 -3.578319 0.000000 0.000000 0.000000 22.408635 -28.108344 36.415392 42.058640 54.710338 19.297723 -12.366567 32.526606 -2.354901 0.000000 0.000000 0.000000 
-0.622400 0.986952 -0.254408 179.473942 34.284657 173.834883 -3.856797 -4.437555 8.911899 -0.516400 -2.991876 -0.613980 10.191145 -3.881320 22.304042 0.000000 0.000000 0.000000 -5.023651 -9.604268 -5.759304 -28.051046 -22.903723 40.307757 29.953693 7.576824 22.617882 0.000000 0.000000 0.000000 -1.257028 -4.732379 20.268229 -9.634489 -4.550430 -32.216580 7.907993 17.694374 39.702215 10.713511 3.666159 -36.984874 0.000000 0.000000 0.000000 4.536623 -13.674288 -69.248624 -30.553830 50.015963 -17.632140 -42.065841 -9.779857 -3.313496 0.000000 0.000000 0.000000 20.371818 -27.542343 38.653901 44.004671 58.161409 24.202765 -15.199930 33.550602 -3.093691 0.000000 0.000000 0.000000 
-0.612884 0.985648 -0.270738 -179.646446 31.431868 173.754866 -3.284364 -6.344069 11.454967 -0.869193 -3.182784 -1.408742 11.582471 -4.915080 20.625154 0.000000 0.000000 0.000000 -3.069800 -9.058613 -7.886267 -23.232190 -21.591993 35.658882 33.085193 5.744146 14.966980 0.000000 0.000000 0.000000 -1.299725 -4.884752 20.354221 -9.096048 -3.888805 -30.730053 6.765870 15.124734 38.122005 9.925697 2.482781 -35.983161 0.000000 0.000000 0.000000 4.754626 -14.416987 -70.122689 -30.704114 49.612601 -17.315638 -44.333372 -10.843041 -3.035563 0.000000 0.000000 0.000000 19.176846 -27.046572 39.617978 46.927922 59.444913 27.848926 -17.305839 35.010345 -3.729688 0.000000 0.000000 0.000000 
-0.601792 0.983953 -0.287314 -179.123561 28.912671 173.261736 -3.633704 -8.630523 14.630092 -1.227321 -3.598083 -3.469877 16.348266 -5.040173 22.121306 0.000000 0.000000 0.000000 -1.301649 -8.682492 -9.788935 -17.578430 -18.656524 29.347893 39.433905 2.378023 13.069914 0.000000 0.000000 0.000000 -1.930474 -5.749575 21.769319 -8.592916 -3.944812 -31.245933 6.873730 14.404843 38.252905 10.079547 2.529417 -36.849908 0.000000 0.000000 0.000000 6.299902 -15.269530 -72.762367 -30.599926 51.604967 -18.065645 -46.471514 -10.630919 -3.511069 0.000000 0.000000 0.000000 18.142833 -27.168824 42.096201 48.168488 63.060156 31.950520 -19.490779 34.483482 -4.460214 0.000000 0.000000 0.000000 
-0.589024 0.980201 -0.304712 -179.438718 27.689356 173.032516 -4.670714 -9.850102 16.641824 -0.788978 -3.446561 -3.934631 18.821717 -5.412440 21.378743 0.000000 0.000000 0.000000 0.378221 -8.144347 -11.413970 -12.509579 -13.134502 21.326998 47.338810 -3.031254 13.487809 0.000000 0.000000 0.000000 -2.043915 -5.561853 21.456791 -8.964421 -4.083671 -30.225200 6.918718 14.381906 37.743478 9.357308 1.908466 -37.109656 0.000000 0.000000 0.000000 7.583096 -15.366566 -75.913817 -29.884180 54.876363 -19.096152 -48.292018 -10.144897 -4.118061 0.000000 0.000000 0.000000 16.786727 -26.715327 45.164611 48.716389 65.773687 35.037955 -22.408995 33.027161 -5.290499 0.000000 0.000000 0.000000 
-0.573995 0.975045 -0.324072 -179.710212 25.152816 172.884823 -5.547116 -11.357560 18.490905 -0.394161 -3.527532 -4.810287 21.919861 -6.430761 22.459412 0.000000 0.000000 0.000000 1.765963 -7.569516 -11.965907 -8.370676 -8.027104 13.114183 41.333466 -9.379274 21.786915 0.000000 0.000000 0.000000 -1.266724 -5.778099 21.547253 -9.501277 -4.679186 -29.541064 6.089041 14.611115 35.896659 11.286289 0.943801 -35.850450 0.000000 0.000000 0.000000 9.981066 -16.344048 -78.921080 -29.393913 58.708155 -21.281454 -48.745613 -7.750659 -5.958717 0.000000 0.000000 0.000000 15.406726 -26.586686 49.252404 48.325470 69.692259 38.374195 -23.269035 31.448637 -5.717070 0.000000 0.000000 0.000000 
-0.556120 0.968492 -0.346269 179.408631 23.068767 171.800836 -6.685610 -13.310763 21.002589 -0.260734 -3.281586 -4.496185 20.427494 -6.050013 20.989201 0.000000 0.000000 0.000000 2.089930 -6.899606 -10.778036 -6.847587 -5.179242 7.993312 27.160116 -9.138717 40.344797 0.000000 0.000000 0.000000 -0.886422 -5.676433 21.264432 -11.186334 -6.499390 -29.276723 7.728888 15.097987 37.024739 9.845027 -0.841431 -35.868591 0.000000 0.000000 0.000000 13.367814 -16.380472 -87.641164 -19.454558 66.633778 -17.619193 -49.337369 -3.024644 -8.633594 0.000000 0.000000 0.000000 12.876827 -27.524025 55.222999 43.045097 76.064128 41.234407 -26.471508 27.298307 -5.873289 0.000000 0.000000 0.000000 
-0.535283 0.961922 -0.371894 178.750924 19.811846 170.894938 -7.621126 -15.552914 23.320831 -1.320589 -3.435982 -3.553919 24.810389 -6.897841 21.333448 0.000000 0.000000 0.000000 1.562369 -6.912164 -9.157263 -6.980828 -5.485731 7.966179 24.545972 -12.225741 60.358660 0.000000 0.000000 0.000000 0.343075 -5.376565 20.419175 -12.722160 -8.375945 -28.633323 8.284979 15.292066 37.312191 9.852381 -2.825176 -35.231135 0.000000 0.000000 0.000000 16.634047 -16.036585 -100.108690 14.935529 71.929591 7.719570 -45.813805 3.848807 -11.172730 0.000000 0.000000 0.000000 10.676309 -28.260251 66.065584 7.119946 83.531970 14.804479 -29.765946 19.974987 -5.558762 0.000000 0.000000 0.000000 
-0.513026 0.957064 -0.398414 178.698471 17.336009 169.806015 -7.618531 -17.292742 24.635464 -3.372940 -3.564078 0.662179 29.935785 -7.545517 20.530534 0.000000 0.000000 0.000000 1.474538 -6.737610 -7.695280 -7.738318 -8.526120 11.710449 22.219311 -10.497894 61.106761 0.000000 0.000000 0.000000 0.722462 -5.127089 19.865533 -12.917013 -8.672240 -27.464827 8.743950 14.801824 37.072655 8.696316 -6.343114 -33.604066 0.000000 0.000000 0.000000 19.190138 -13.626921 -113.205451 55.038793 67.650340 38.003414 -40.939420 11.119977 -12.881355 0.000000 0.000000 0.000000 8.975161 -29.857219 73.231081 -45.359042 83.412942 -31.230335 -31.314489 15.895968 -4.972692 0.000000 0.000000 0.000000 
-0.491466 0.957845 -0.422821 178.940950 16.619319 170.065423 -4.840576 -16.334488 22.002237 -6.439606 -4.832769 6.786693 29.397658 -7.462888 22.291406 0.000000 0.000000 0.000000 1.952013 -6.010580 -6.284001 -7.487132 -9.671304 12.450588 21.856178 -10.627528 62.377823 0.000000 0.000000 0.000000 1.977180 -4.324446 18.311988 -12.439259 -8.037600 -26.910183 7.515889 13.307037 37.090227 8.981331 -7.086635 -32.800364 0.000000 0.000000 0.000000 19.114222 -12.285578 -115.692623 68.012089 64.882225 46.622416 -38.022040 7.753508 -11.347976 0.000000 0.000000 0.000000 10.141615 -30.468414 73.606528 -57.615014 82.224555 -42.827881 -29.589129 14.885165 -4.689997 0.000000 0.000000 0.000000 
-0.471722 0.960638 -0.443137 179.141064 17.011309 170.562139 -2.032266 -12.986161 16.744903 -9.885723 -7.863482 15.798926 29.537490 -7.347005 28.577062 0.000000 0.000000 0.000000 2.982385 -4.879810 -4.758881 -7.328061 -9.411982 11.828998 22.394865 -11.212708 62.502937 0.000000 0.000000 0.000000 2.145783 -3.761963 17.311471 -11.966911 -7.437050 -26.927625 7.920517 12.373033 36.513110 7.182152 -8.146532 -32.506944 0.000000 0.000000 0.000000 18.729926 -11.416622 -117.186510 74.507900 61.622739 50.095385 -35.364386 7.432015 -10.543683 0.000000 0.000000 0.000000 9.171782 -29.800080 74.068232 -52.934923 81.670779 -37.203632 -30.150481 13.796320 -4.356638 0.000000 0.000000 0.000000 
-0.454675 0.963955 -0.459188 179.372574 17.306875 170.844620 1.582606 -9.133072 9.416265 -17.753118 -14.315798 28.528900 24.148326 -2.976560 36.686719 0.000000 0.000000 0.000000 3.291938 -4.529512 -3.918540 -6.649431 -10.659460 12.483723 22.153295 -11.130534 63.019846 0.000000 0.000000 0.000000 2.507325 -3.899277 17.397958 -10.308651 -5.754237 -27.374836 6.794351 12.493669 35.850466 7.066002 -9.827508 -30.785577 0.000000 0.000000 0.000000 19.019326 -10.483687 -116.858653 77.345499 60.518308 50.724527 -33.466674 6.770895 -9.930798 0.000000 0.000000 0.000000 9.423430 -30.893608 69.729230 -28.218311 82.564174 -14.397582 -29.560837 15.946132 -4.221552 0.000000 0.000000 0.000000 
-0.440888 0.965453 -0.471370 179.447148 17.737893 170.996487 3.541703 -5.926392 1.910411 -29.445265 -20.333515 39.886810 23.835841 -1.615157 51.772619 0.000000 0.000000 0.000000 4.004145 -3.908261 -2.776445 -6.437330 -10.461993 12.008932 21.990827 -11.143544 63.018644 0.000000 0.000000 0.000000 2.886151 -4.471345 18.155716 -10.713461 -6.190945 -28.153412 8.245368 13.788614 36.080693 8.058591 -8.583155 -31.785541 0.000000 0.000000 0.000000 19.328065 -8.579607 -121.889857 79.170075 53.633939 48.078507 -34.427257 10.065738 -11.216837 0.000000 0.000000 0.000000 8.420761 -31.417936 70.164531 -34.091380 82.194828 -17.883386 -31.350173 14.474078 -3.727594 0.000000 0.000000 0.000000 
-0.430041 0.964935 -0.481048 179.701510 19.159161 170.975834 5.838769 -5.480716 -3.220438 -40.254061 -22.644736 45.799393 25.061596 -1.281019 60.408641 0.000000 0.000000 0.000000 4.851370 -3.288299 -1.944568 -6.515270 -10.503819 12.133266 22.090013 -11.172359 63.120378 0.000000 0.000000 0.000000 2.773900 -5.228510 19.353872 -10.976190 -6.454159 -28.643083 10.304567 15.756627 36.720558 7.276362 -8.395182 -32.361744 0.000000 0.000000 0.000000 18.709166 -7.725695 -124.071776 78.534318 51.682904 47.361779 -32.515422 11.861672 -10.973603 0.000000 0.000000 0.000000 8.859337 -31.626275 69.513980 -36.043113 79.694025 -19.394145 -33.124822 16.331010 -3.845512 0.000000 0.000000 0.000000 
-0.421644 0.966333 -0.489700 179.621914 20.877334 171.652829 6.996835 -5.313752 -7.998999 -43.993562 -23.262148 47.921628 28.493448 -1.323045 61.263605 0.000000 0.000000 0.000000 4.286396 -3.513705 -2.048501 -5.903987 -10.803932 12.313070 25.729200 -14.474597 62.968900 0.000000 0.000000 0.000000 2.437612 -6.058238 20.870538 -11.501816 -7.446825 -30.610843 12.675335 16.758201 37.971676 6.877785 -7.431592 -33.125241 0.000000 0.000000 0.000000 16.426321 -7.828249 -122.959468 72.557062 51.289024 45.085064 -31.599418 10.463234 -9.466880 0.000000 0.000000 0.000000 10.838579 -31.497351 66.594307 -27.021722 77.331595 -13.284837 -32.476868 18.667199 -4.141604 0.000000 0.000000 0.000000 
-0.415407 0.967371 -0.498349 -179.951158 23.689607 172.518868 7.609072 -5.488078 -11.475449 -44.393602 -23.019372 47.979235 38.424596 -1.726902 57.135180 0.000000 0.000000 0.000000 5.089963 -2.807389 -0.957174 -5.916455 -8.636097 10.492540 31.386953 -18.918317 59.389213 0.000000 0.000000 0.000000 3.074491 -5.959023 20.572609 -11.575425 -6.908085 -29.653495 12.426642 16.955490 37.194036 6.408469 -6.711605 -32.293399 0.000000 0.000000 0.000000 11.922595 -11.525317 -106.719330 51.737724 62.299971 36.462402 -32.326583 5.779184 -7.537988 0.000000 0.000000 0.000000 14.461515 -29.366158 59.224979 -6.716583 73.738682 -0.661835 -28.645251 22.880783 -4.650901 0.000000 0.000000 0.000000 
